<svg width="64" height="80" xmlns="http://www.w3.org/2000/svg" data-name="Layer 1">
 <title>file document 3d</title>

 <g>
  <title>Layer 1</title>
  <path id="svg_1" d="m31,28.019l0,7.2l8.234,4.755l8.235,-4.755l0,-9.51l-8.235,-4.754l-6.234,3.599l0,-7.2l-8.234,-4.754l-8.235,4.754l0,9.509l8.235,4.755l6.234,-3.599zm2,0l5.232,3.02l0,6.048l-5.232,-3.024l0,-6.044zm7.232,9.071l0,-6.04l5.237,-3.029l0,6.045l-5.237,3.024zm4.237,-10.8l-5.227,3.023l-5.242,-3.028l5.232,-3.021l5.237,3.026zm-13.469,-0.581l0,0l-5.237,3.023l0,-6.04l5.237,-3.028l0,6.045zm-1,-7.777l-5.227,3.022l-5.24,-3.024l5.233,-3.02l5.234,3.022zm-11.469,1.729l5.232,3.02l0,6.048l-5.232,-3.02l0,-6.048z"/>
  <path id="svg_2" d="m54,43.67l0,-26.294l-0.293,-0.293l-14.29,-14.29l-0.293,-0.293l-25.124,0a4,4 0 0 0 -4,4l0,33.742a1.991,1.991 0 0 0 -1,1.722l0,14.536a5.006,5.006 0 0 0 5,5l36,0a5.006,5.006 0 0 0 5,-5l0,-11.107a1.991,1.991 0 0 0 -1,-1.723zm-26.086,6.487l-3.876,0l0,1.824l2.892,0l0.012,1.632l-2.9,0.012l0,3.828l-1.912,0l0,-8.928l5.784,0l0,1.632zm6.613,6.684a4.173,4.173 0 0 1 -2.479,0.612l-3.248,0l0,-8.928l3.33,0a6.078,6.078 0 0 1 1.144,0.108a2.872,2.872 0 0 1 0.988,0.378a2.01,2.01 0 0 1 0.689,0.726a2.292,2.292 0 0 1 0.257,1.14a2.154,2.154 0 0 1 -0.287,1.1a1.96,1.96 0 0 1 -0.839,0.769a2.073,2.073 0 0 1 1.031,0.839a2.787,2.787 0 0 1 0.287,1.32a2.193,2.193 0 0 1 -0.873,1.936zm6.167,0.612l-1.356,-2.772l-1.356,2.772l-2.1,0l2.412,-4.572l-2.268,-4.356l2.1,0l1.212,2.508l1.212,-2.508l2.1,0l-2.268,4.356l2.412,4.572l-2.1,0zm11.306,-14.06l-21.914,0l-2.4,-2.746a2,2 0 0 0 -1.505,-0.683l-14.181,0l0,-33.464a2,2 0 0 1 2,-2l23.71,0l0,10.29a4,4 0 0 0 4,4l10.29,0l0,24.603z"/>
  <path id="svg_3" d="m32.63,51.905a1.022,1.022 0 0 0 0.336,-0.158a0.833,0.833 0 0 0 0.234,-0.263a0.755,0.755 0 0 0 0.09,-0.38a0.867,0.867 0 0 0 -0.276,-0.7a1.212,1.212 0 0 0 -0.828,-0.246l-1.476,0l0,1.8l1.524,0a1.5,1.5 0 0 0 0.396,-0.053z"/>
  <path id="svg_4" d="m32.229,53.589l-1.519,0l0,2.232l1.542,0a1.445,1.445 0 0 0 0.929,-0.255a1.083,1.083 0 0 0 0.313,-0.884a1.043,1.043 0 0 0 -0.3,-0.831a1.512,1.512 0 0 0 -0.965,-0.262z"/>
  <text id="svg_6" font-family="'Helvetica Neue', Helvetica, Arial-Unicode, Arial, Sans-serif" font-weight="bold" font-size="5px" fill="#000000" y="84" x="0">from the Noun Project</text>
 </g>
</svg>