<svg width="64" height="80" xmlns="http://www.w3.org/2000/svg" data-name="Layer 1">
 <title>file document format</title>

 <g>
  <title>Layer 1</title>
  <rect id="svg_1" height="2" width="17.71" y="17.061" x="16"/>
  <rect id="svg_2" height="2" width="17.71" y="30.248" x="30.29"/>
  <rect id="svg_3" height="2" width="32" y="21.455" x="16"/>
  <rect id="svg_4" height="2" width="32" y="25.851" x="16"/>
  <path id="svg_5" d="m54,43.67l0,-26.294l-0.293,-0.293l-14.29,-14.29l-0.293,-0.293l-25.124,0a4,4 0 0 0 -4,4l0,33.742a1.991,1.991 0 0 0 -1,1.722l0,14.536a5.006,5.006 0 0 0 5,5l36,0a5.006,5.006 0 0 0 5,-5l0,-11.107a1.991,1.991 0 0 0 -1,-1.723zm-26.689,9.649a3.606,3.606 0 0 1 -2.358,0.681l-1.365,0l0,3.5l-1.908,0l0,-8.921l3.288,0a5.222,5.222 0 0 1 1.261,0.144a2.756,2.756 0 0 1 1.01,0.468a2.223,2.223 0 0 1 0.676,0.846a2.968,2.968 0 0 1 0.245,1.263a2.457,2.457 0 0 1 -0.849,2.019zm8.578,1.626a3.523,3.523 0 0 1 -0.789,1.4a3.849,3.849 0 0 1 -3.026,1.164l-2.942,0l0,-8.93l2.918,0a4.8,4.8 0 0 1 1.836,0.318a3.3,3.3 0 0 1 1.274,0.906a3.758,3.758 0 0 1 0.741,1.41a6.6,6.6 0 0 1 0.239,1.842a6.49,6.49 0 0 1 -0.251,1.89zm7.031,-4.734l-3.876,0l0,1.824l2.892,0l0.012,1.632l-2.9,0.012l0,3.828l-1.912,0l0,-8.928l5.784,0l0,1.632zm9.08,-6.818l-21.914,0l-2.4,-2.746a2,2 0 0 0 -1.505,-0.683l-14.181,0l0,-33.464a2,2 0 0 1 2,-2l23.71,0l0,10.29a4,4 0 0 0 4,4l10.29,0l0,24.603z"/>
  <path id="svg_6" d="m33.69,50.913a1.919,1.919 0 0 0 -1.638,-0.7l-1.012,0l0,5.664l0.988,0a2.345,2.345 0 0 0 1.09,-0.224a1.717,1.717 0 0 0 0.674,-0.617a2.592,2.592 0 0 0 0.344,-0.908a5.967,5.967 0 0 0 0.1,-1.095a4.926,4.926 0 0 0 -0.138,-1.24a2.494,2.494 0 0 0 -0.408,-0.88z"/>
  <path id="svg_7" d="m25.927,50.469a1.879,1.879 0 0 0 -1.121,-0.258l-1.218,0l0,2.16l1.218,0a3.555,3.555 0 0 0 0.548,-0.041a1.337,1.337 0 0 0 0.458,-0.153a0.837,0.837 0 0 0 0.319,-0.317a1.038,1.038 0 0 0 0.121,-0.534a1.408,1.408 0 0 0 -0.085,-0.534a0.745,0.745 0 0 0 -0.24,-0.323z"/>
  <text id="svg_9" font-family="'Helvetica Neue', Helvetica, Arial-Unicode, Arial, Sans-serif" font-weight="bold" font-size="5px" fill="#000000" y="84" x="0">from the Noun Project</text>
 </g>
</svg>